name Walk9.mot
datacolumns 19
datarows 10
range 1.45600000 1.46500000
endheader

                time	   L_ground_force_vx	   L_ground_force_vy	   L_ground_force_vz	   L_ground_force_px	   L_ground_force_py	   L_ground_force_pz	   R_ground_force_vx	   R_ground_force_vy	   R_ground_force_vz	   R_ground_force_px	   R_ground_force_py	   R_ground_force_pz	   L_ground_torque_x	   L_ground_torque_y	   L_ground_torque_z	   R_ground_torque_x	   R_ground_torque_y	   R_ground_torque_z	
          1.45600000	          0.00000000	          0.00000000	          0.00000000	          0.00000000	          0.00000000	          0.00000000	         19.72213659	        552.90131925	         41.31866077	         -0.31425433	          0.00000000	         -0.09924100	          0.00000000	          0.00000000	          0.00000000	          0.00000000	         -0.55987987	          0.00000000	
          1.45700000	          0.00000000	          0.00000000	          0.00000000	          0.00000000	          0.00000000	          0.00000000	         20.14881561	        554.61156417	         41.37875023	         -0.31407755	          0.00000000	         -0.09908164	          0.00000000	          0.00000000	          0.00000000	          0.00000000	         -0.57272394	          0.00000000	
          1.45800000	          0.00000000	          0.00000000	          0.00000000	          0.00000000	          0.00000000	          0.00000000	         20.59050538	        556.26979797	         41.43173960	         -0.31390026	          0.00000000	         -0.09902796	          0.00000000	          0.00000000	          0.00000000	          0.00000000	         -0.57749061	          0.00000000	
          1.45900000	          0.00000000	          0.00000000	          0.00000000	          0.00000000	          0.00000000	          0.00000000	         21.05663861	        557.82890611	         41.46793205	         -0.31374791	          0.00000000	         -0.09908249	          0.00000000	          0.00000000	          0.00000000	          0.00000000	         -0.57604227	          0.00000000	
          1.46000000	          0.00000000	          0.00000000	          0.00000000	          0.00000000	          0.00000000	          0.00000000	         21.54407949	        559.27508293	         41.48552430	         -0.31364134	          0.00000000	         -0.09919451	          0.00000000	          0.00000000	          0.00000000	          0.00000000	         -0.57748219	          0.00000000	
          1.46100000	          0.00000000	          0.00000000	          0.00000000	          0.00000000	          0.00000000	          0.00000000	         22.04586168	        560.66083589	         41.49155885	         -0.31357426	          0.00000000	         -0.09928669	          0.00000000	          0.00000000	          0.00000000	          0.00000000	         -0.58916666	          0.00000000	
          1.46200000	          0.00000000	          0.00000000	          0.00000000	          0.00000000	          0.00000000	          0.00000000	         22.56103956	        562.08233933	         41.49685476	         -0.31351363	          0.00000000	         -0.09929894	          0.00000000	          0.00000000	          0.00000000	          0.00000000	         -0.60967171	          0.00000000	
          1.46300000	          0.00000000	          0.00000000	          0.00000000	          0.00000000	          0.00000000	          0.00000000	         23.09059881	        563.61392184	         41.50815860	         -0.31343089	          0.00000000	         -0.09924466	          0.00000000	          0.00000000	          0.00000000	          0.00000000	         -0.62929589	          0.00000000	
          1.46400000	          0.00000000	          0.00000000	          0.00000000	          0.00000000	          0.00000000	          0.00000000	         23.62811409	        565.28087940	         41.52796094	         -0.31332315	          0.00000000	         -0.09920443	          0.00000000	          0.00000000	          0.00000000	          0.00000000	         -0.63757339	          0.00000000	
          1.46500000	          0.00000000	          0.00000000	          0.00000000	          0.00000000	          0.00000000	          0.00000000	         24.16212451	        567.06687203	         41.56035659	         -0.31320012	          0.00000000	         -0.09923218	          0.00000000	          0.00000000	          0.00000000	          0.00000000	         -0.63042196	          0.00000000	
